<?xml version="1.0" encoding="utf-8"?>
<!-- Generator: Adobe Illustrator 22.0.1, SVG Export Plug-In . SVG Version: 6.00 Build 0)  -->
<svg version="1.1" id="Camada_1" xmlns="http://www.w3.org/2000/svg" xmlns:xlink="http://www.w3.org/1999/xlink" x="0px" y="0px"
	 viewBox="0 0 288.8 167" style="fill: rgba(0,0,0,.1);" xml:space="preserve">
<g>
	<g>
		<g>
			<path d="M55.4,78.6c-12.6-2.3-24.7,5.7-27,18.1c-1.3,7.1,0.9,14.4,5.8,19.7l-2,10.6c-0.2,0.8,0.2,1.7,0.9,2.1
				c0.7,0.5,1.6,0.5,2.3,0l10-6.2c0.5,0.1,1.1,0.3,1.6,0.4c12.6,2.3,24.7-5.7,27-18.1C76.3,92.8,68,80.9,55.4,78.6z M47.8,119.1
				c-0.7-0.1-1.4-0.3-2.1-0.5c-0.6-0.2-1.2-0.1-1.7,0.2l-6.7,4.2l1.3-7c0.1-0.7-0.1-1.4-0.6-1.9c-4.5-4.4-6.6-10.6-5.4-16.7
				c1.9-10,11.8-16.7,22-14.7c10.3,1.9,17.1,11.7,15.2,21.7C68,114.4,58.1,121,47.8,119.1z"/>
		</g>
	</g>
	<g>
		<g>
			<path d="M54.5,89l-7.3-1.4c-1.1-0.2-2.2,0.5-2.5,1.7s0.5,2.2,1.7,2.5l7.3,1.4c1.7,0.3,2.8,2,2.5,3.7c-0.3,1.7-2,2.8-3.7,2.5
				L50.5,99c-1.1-0.2-2.2,0.5-2.5,1.7l-0.6,3c-0.2,1.1,0.5,2.2,1.7,2.5c1.1,0.2,2.2-0.5,2.5-1.7l0.2-0.9c4,0.7,7.9-1.9,8.6-5.9
				C61.2,93.6,58.5,89.7,54.5,89z"/>
		</g>
	</g>
	<g>
		<g>
			<circle cx="48.2" cy="111.4" r="2.8"/>
		</g>
	</g>
</g>
<g>
	<g>
		<g>
			<path d="M180.1,11.6c-6.8,4.2-9.1,13-4.9,19.8c2.4,3.9,6.5,6.3,11,6.7l3.6,5.8c0.3,0.4,0.8,0.7,1.3,0.6c0.5-0.1,0.9-0.4,1.1-0.9
				l2-7.1c0.3-0.2,0.6-0.3,0.9-0.5c6.8-4.2,9.1-13,4.9-19.8C195.8,9.4,186.9,7.4,180.1,11.6z M193.7,33.7c-0.4,0.2-0.8,0.4-1.2,0.6
				c-0.3,0.2-0.6,0.5-0.7,0.8l-1.3,4.8l-2.3-3.8c-0.2-0.4-0.6-0.6-1.1-0.6c-4-0.1-7.5-2.2-9.6-5.5c-3.4-5.5-1.5-12.7,4-16.1
				s12.9-1.8,16.2,3.7C201.1,23,199.2,30.2,193.7,33.7z"/>
		</g>
	</g>
	<g>
		<g>
			<path d="M184.1,16.8l-3.9,2.4c-0.6,0.4-0.8,1.2-0.4,1.8c0.4,0.6,1.2,0.8,1.8,0.4l3.9-2.4c0.9-0.6,2.2-0.3,2.7,0.7
				s0.3,2.2-0.7,2.7l-1.1,0.7c-0.6,0.4-0.8,1.2-0.4,1.8l1,1.6c0.4,0.6,1.2,0.8,1.8,0.4c0.6-0.4,0.8-1.2,0.4-1.8l-0.3-0.5
				c2.2-1.3,2.9-4.2,1.5-6.4C189.1,16.2,186.3,15.5,184.1,16.8z"/>
		</g>
	</g>
	<g>
		<g>
			<circle cx="190.6" cy="29.9" r="1.8"/>
		</g>
	</g>
</g>
<g>
	<path d="M141.3,63.3c0.1,1.7-1.1,2.7-1.9,3.5c-0.3,0.3-0.9,0.8-0.9,1c0,0.8-0.5,1.4-1.3,1.4c0,0,0,0,0,0c-0.7,0-1.4-0.5-1.4-1.3
		c-0.1-1.5,0.9-2.4,1.8-3.2c0.6-0.6,1.1-1,1-1.4c0-0.7-0.7-1.3-1.4-1.3c-0.7,0-1.3,0.7-1.3,1.4c0,0.8-0.5,1.4-1.3,1.4
		s-1.4-0.5-1.4-1.3c-0.1-2.2,1.6-4.2,3.8-4.3C139.3,59.3,141.2,61.1,141.3,63.3z M137.4,70.6c-0.8,0-1.3,0.7-1.3,1.4l0,0
		c0,0.8,0.7,1.3,1.4,1.3c0.8,0,1.3-0.7,1.3-1.4C138.8,71.1,138.1,70.5,137.4,70.6z M110.5,81.6c-0.8,0-1.3,0.7-1.3,1.4
		c0,0.8,0.7,1.3,1.4,1.3l0.1,0c0.8,0,1.3-0.7,1.3-1.4c0-0.8-0.7-1.3-1.4-1.3L110.5,81.6z M115.2,81.3c-0.8,0-1.3,0.7-1.3,1.4
		c0,0.8,0.7,1.3,1.4,1.3l0.1,0c0.8,0,1.3-0.7,1.3-1.4c0-0.8-0.7-1.3-1.4-1.3L115.2,81.3z M153.9,57.3l0.9,15.3
		c0.2,3.6-2.5,6.7-6.2,6.9l-17.7,1c-0.3,0-0.6,0-0.9,0c-0.2,0-0.5,0-0.6,0c-0.1,0.1-0.4,0.4-0.6,0.6c-0.1,0.1-0.2,0.2-0.3,0.3
		l-4.7,4.8c-0.4,0.4-1,0.5-1.5,0.3c-0.5-0.2-0.9-0.7-0.9-1.2l-0.8-14.4L106.3,72c-2.1,0.1-3.8,2-3.7,4.1l0.9,15.3
		c0.1,2.1,2,3.7,4.1,3.6l19.7-1.1c0.3,0,0.7,0.1,0.9,0.3l4.3,3.5l-0.7-12.9c0-0.8,0.5-1.4,1.3-1.4c0.8,0,1.4,0.5,1.4,1.3l0.9,16
		c0,0.5-0.3,1-0.7,1.3c-0.2,0.1-0.3,0.1-0.5,0.1c-0.3,0-0.7-0.1-0.9-0.3l-6.3-5.1l-19.2,1.1c-3.6,0.2-6.8-2.5-7-6.1l-0.9-15.3
		c-0.2-3.6,2.6-6.8,6.2-7l14.3-0.8l-0.5-9.2c-0.2-3.6,2.6-6.7,6.3-6.9l20.9-1.2C150.7,50.9,153.7,53.7,153.9,57.3z M151.2,57.5
		c-0.1-2.1-1.9-3.7-4-3.6l-20.9,1.2c-2.1,0.1-3.8,1.9-3.7,4l0.6,10.6l0.7,12.7l2.6-2.6c0.1-0.1,0.3-0.2,0.4-0.3
		c1.2-1.2,1.5-1.4,3.1-1.5c0.2,0,0.5,0,0.8,0l17.7-1c2.1-0.1,3.7-1.9,3.6-4.1L151.2,57.5L151.2,57.5z"/>
</g>
<g>
	<path d="M124.3,126.6c6,3,10.5,8.7,7.2,15.3c-3,6.1-11.2,4.9-13.8,6.4c-1.9,1.1-2.7,3.5-5.8,2c-2-1-2.2-3.1-1.4-4.6
		c2.8-5.6,11.6-2.7,13.9-7.3c1.3-2.5,0.3-4.9-2.5-6.3c-6-3-6.7,4.3-11.2,2.1c-1.6-0.8-2.5-2.5-1.6-4.4
		C111.4,125.2,118.6,123.8,124.3,126.6z M110.6,153.4c2.1,1.1,3,3.6,1.9,5.7s-3.6,3-5.7,1.9c-2.1-1.1-3-3.6-1.9-5.7
		C105.9,153.2,108.5,152.3,110.6,153.4z"/>
</g>
<g>
	<g id="help">
		<path d="M59.4,12.5c-8.8,6.1-11,18.4-4.8,27.2s18.4,11,27.2,4.8s11-18.4,4.8-27.2S68.2,6.3,59.4,12.5z M80,38.5l-3.2,2.2l-2.2-3.2
			l3.2-2.2L80,38.5z M74.8,23.9l-0.4,2.4c-0.5,2-0.5,3.4,1.2,5.8l-3.2,2.2l-0.6-0.8c-1.2-1.8-1.7-3.8-1.2-5.8l0.5-3.4
			c0.3-0.9,0.1-1.9-0.6-2.9c-1.2-1.8-3.7-2.2-5.4-1c-1.8,1.2-2.2,3.7-1,5.4l-3.2,2.2c-2.5-3.5-1.6-8.4,1.9-10.9
			c3.5-2.5,8.4-1.6,10.9,1.9C74.6,20.6,74.9,22.3,74.8,23.9z"/>
	</g>
</g>
<g>
	<path d="M189.1,104c-1.7-0.9-3.4-1.1-5-0.5l0,0l-0.4,0.1l0,0c-1.4,0.6-2.5,1.6-3.3,3.2l-0.4,0.8l3.4,1.8l0.4-0.7
		c0.6-1,1-1.4,1.3-1.6c0.4-0.3,1.1-0.6,2.2,0c0.7,0.4,1.1,0.8,1.2,1.2c0.1,0.5,0,1-0.3,1.5c-0.2,0.3-0.5,0.6-0.9,0.9
		c-0.2,0.1-0.5,0.2-0.8,0.3l-1.3,0.4c-1.4,0.4-2.3,0.9-3,1.5c-0.6,0.6-1.3,1.4-1.8,2.5l-0.4,0.8l3.4,1.8l0.4-0.8
		c0.5-1,0.9-1.4,1.1-1.6c0.2-0.2,0.8-0.5,1.9-0.8c1.5-0.4,2.5-0.8,3.1-1.1c0.7-0.4,1.3-1,1.8-1.9c0.8-1.4,0.9-2.9,0.4-4.4
		C191.8,106,190.7,104.8,189.1,104z"/>
	<path d="M202.9,107.3c-1.5-4.8-4.7-8.7-9.1-11.1c-4.4-2.4-9.5-2.9-14.3-1.4c-4.8,1.5-8.7,4.7-11.1,9.1c-4.9,9.1-1.4,20.6,7.8,25.4
		c2.8,1.5,5.8,2.2,8.8,2.2c1.8,0,3.7-0.3,5.5-0.8c4.8-1.5,8.7-4.7,11.1-9.1C203.9,117.2,204.4,112.1,202.9,107.3z M177.7,126.4
		c-7.5-4-10.4-13.4-6.4-20.9c1.9-3.6,5.2-6.3,9.1-7.5c1.5-0.5,3-0.7,4.5-0.7c2.5,0,5,0.6,7.2,1.8c7.5,4,10.4,13.4,6.4,20.9
		C194.5,127.6,185.2,130.4,177.7,126.4z"/>
	<path d="M179.8,121.1L179.8,121.1c1,0.5,2.2,0.2,2.8-0.8l0-0.1c0.5-1,0.2-2.2-0.8-2.8h0c-1-0.5-2.2-0.2-2.8,0.8l0,0.1
		C178.4,119.3,178.8,120.6,179.8,121.1z"/>
</g>
<g>
	<g>
		<g>
			<path d="M280.7,121.6h-18.6c0.1-0.3,0.1-0.7,0.1-1v-11.4c0-3.1-2.5-5.6-5.6-5.6h-21.3c-3.1,0-5.6,2.5-5.6,5.6v11.4
				c0,3.1,2.5,5.6,5.6,5.6h3.3l-0.2,4.1c0,0.4,0.2,0.7,0.5,0.9c0.2,0.1,0.3,0.1,0.5,0.1c0.2,0,0.4-0.1,0.5-0.2l7.7-5h1
				c-0.2,0.6-0.3,1.3-0.3,2v13.8c0,3.6,2.9,6.6,6.6,6.6h2.8l6.2,6.4c0.2,0.2,0.4,0.3,0.7,0.3c0.1,0,0.2,0,0.3-0.1
				c0.4-0.1,0.6-0.5,0.7-0.8l0.6-5.8h14.5c3.6,0,6.6-2.9,6.6-6.6v-13.8C287.2,124.5,284.3,121.6,280.7,121.6z M249.7,124.1h-2.3
				c-0.2,0-0.4,0.1-0.5,0.2l-6.4,4.1l0.1-3.2c0-0.3-0.1-0.5-0.3-0.7c-0.2-0.2-0.4-0.3-0.7-0.3h-4.3c-2,0-3.6-1.6-3.6-3.6v-11.4
				c0-2,1.6-3.6,3.6-3.6h21.3c2,0,3.6,1.6,3.6,3.6v11.4c0,0.4-0.1,0.7-0.2,1h-5.2C252.7,121.6,250.9,122.6,249.7,124.1z
				 M285.2,141.9c0,2.5-2,4.6-4.6,4.6h-15.4c-0.5,0-0.9,0.4-1,0.9l-0.5,4.5l-5-5.1c-0.2-0.2-0.4-0.3-0.7-0.3h-3.2
				c-2.5,0-4.6-2-4.6-4.6v-13.8c0-2.5,2-4.6,4.6-4.6h25.8v0c2.5,0,4.6,2,4.6,4.6L285.2,141.9L285.2,141.9z"/>
		</g>
	</g>
	<g>
		<g>
			<path d="M250.3,111.1c-0.1-2.2-1.9-3.9-4.1-4.1c-1.2-0.1-2.4,0.3-3.3,1.2c-0.9,0.8-1.4,2-1.4,3.2c0,0.6,0.4,1,1,1s1-0.4,1-1
				c0-0.7,0.3-1.3,0.7-1.7c0.5-0.4,1.1-0.7,1.8-0.6c1.2,0.1,2.1,1,2.2,2.2c0.1,0.9-0.4,1.7-1.1,2.2c-1.4,0.9-2.2,2.3-2.2,3.9
				c0,0.6,0.4,1,1,1c0.6,0,1-0.4,1-1c0-0.9,0.5-1.8,1.3-2.2C249.6,114.2,250.4,112.7,250.3,111.1z"/>
		</g>
	</g>
	<g>
		<g>
			<path d="M267.8,127.6c-0.6,0-1,0.4-1,1v8.4c0,0.6,0.4,1,1,1c0.6,0,1-0.4,1-1v-8.4C268.8,128,268.3,127.6,267.8,127.6z"/>
		</g>
	</g>
	<g>
		<g>
			<circle cx="267.8" cy="141.5" r="1"/>
		</g>
	</g>
	<g>
		<g>
			<circle cx="245.9" cy="121" r="1"/>
		</g>
	</g>
</g>
<g>
	<path d="M243,30c-10.5,4.2-15.9,15.5-12,25.2c1.1,2.6,2.7,4.9,4.7,6.7l-1.2,10c-0.1,0.6,0.2,1.1,0.7,1.4c0.4,0.2,0.8,0.2,1.2,0.1
		c0.1,0,0.2-0.1,0.3-0.2l8.8-6.7c3.7,0.6,7.8,0.2,11.6-1.3c10.5-4.2,15.9-15.5,12-25.2C265.2,30.2,253.5,25.8,243,30z M253.7,56.6
		c-1,0.4-2.2-0.1-2.6-1.1c-0.4-1,0.1-2.2,1.1-2.6c1-0.4,2.2,0.1,2.6,1.1C255.2,55,254.7,56.2,253.7,56.6z M252,46.9
		c-0.2,0.3-0.3,0.5-0.4,0.6l0.8,2c0.3,0.8-0.1,1.7-0.9,2.1c-0.8,0.3-1.7-0.1-2.1-0.9l-0.9-2.1c-0.6-1.4,0.2-2.5,0.7-3.4
		c0.6-0.9,1-1.5,0.5-2.6c-0.4-0.9-1.4-1.4-2.3-1c-0.9,0.4-1.4,1.4-1,2.3c0.3,0.8-0.1,1.7-0.9,2.1c-0.8,0.3-1.7-0.1-2.1-0.9
		c-1-2.5,0.2-5.4,2.8-6.5c2.5-1,5.4,0.2,6.5,2.8C254,44,252.8,45.8,252,46.9z"/>
</g>
</svg>
