<svg version="1.1"
      xmlns="http://www.w3.org/2000/svg"
      xmlns:xlink="http://www.w3.org/1999/xlink"  id="snapshot-14864" width="250" height="250" viewBox="0 0 250 250"><desc>This image was made on Patterninja.com</desc><defs>
<!-- image 21419 -->
<g id="transformed-21419" data-image="21419" transform="translate(157.87956044287793, 176.87956044287793) rotate(15, 29.120439557122072, 29.120439557122072)"><g><svg version="1.1" width="58.240879114244144px" height="58.240879114244144px" viewBox="0 0 58.240879114244144 58.240879114244144"><g id="original-21419"><svg xmlns="http://www.w3.org/2000/svg" viewBox="0 0 442.762 442.762" xmlns:xlink="http://www.w3.org/1999/xlink" version="1.1" preserveAspectRatio="xMidYMid meet">
  <path d="M237.082 31.617c-113.596 0-205.68 84.96-205.68 189.764 0 28.473 6.809 55.473 18.986 79.711L1.736 389.064a13.883 13.883 0 0 0 15.824 20.108l106.506-29.232c32.432 19.719 71.266 31.205 113.016 31.205 113.594 0 205.68-84.959 205.68-189.764 0-104.804-92.086-189.764-205.68-189.764zm-.345 287.256c-11.227 0-20.356-9.132-20.356-20.357s9.131-20.357 20.356-20.357c11.227 0 20.357 9.133 20.357 20.357.002 11.224-9.129 20.357-20.357 20.357zm21.327-96.839c-2.674 1.828-4.522 3.175-5.522 4.021v21.272c0 8.712-7.091 15.8-15.802 15.8-8.715 0-15.802-7.088-15.802-15.8v-22.918c0-15.281 11.152-22.903 19.296-28.467 8.789-6.005 14.595-9.972 14.595-22.361 0-9.975-8.113-18.09-18.089-18.09-9.977 0-18.089 8.115-18.089 18.09 0 8.713-7.09 15.801-15.803 15.801-8.713 0-15.803-7.088-15.803-15.801 0-27.4 22.293-49.692 49.694-49.692 27.398 0 49.691 22.292 49.691 49.692.002 29.072-17.756 41.206-28.366 48.453z" fill="rgba(0, 0, 0, .1)" stroke="none"/>
</svg>
</g></svg></g></g>
<!-- /image 21419 -->

<!-- image 46719 -->
<g id="transformed-46719" data-image="46719" transform="translate(125.83700578687261, 3.837005786872581) rotate(355, 49.16299421312739, 49.16299421312742)"><g><svg version="1.1" width="98.32598842625478px" height="98.32598842625484px" viewBox="0 0 98.32598842625478 98.32598842625484"><g id="original-46719"><svg xmlns="http://www.w3.org/2000/svg" viewBox="0 0 512 512" xmlns:xlink="http://www.w3.org/1999/xlink" version="1.1" preserveAspectRatio="xMidYMid meet">
  <path d="M453.708 186.943H288.512c.569-3.022.869-6.105.869-9.245V76.216c0-27.432-22.317-49.748-49.748-49.748H49.737C22.311 26.468 0 48.784 0 76.216v101.482c0 27.425 22.311 49.736 49.737 49.736h29.221l-1.577 36.738a8.869 8.869 0 0 0 13.681 7.826l68.856-44.565h8.724a58.065 58.065 0 0 0-2.786 17.786v122.676c0 32.134 26.143 58.278 58.278 58.278h25.178l55.514 56.695a8.864 8.864 0 0 0 9.277 2.161 8.867 8.867 0 0 0 5.884-7.491l5.097-51.365h128.625c32.143 0 58.292-26.144 58.292-58.278V245.22c-.001-32.135-26.151-58.277-58.293-58.277zM177.98 209.696h-20.683c-1.71 0-3.383.494-4.819 1.424l-56.639 36.658 1.238-28.832a8.873 8.873 0 0 0-8.86-9.25H49.738c-17.645 0-32.001-14.354-32.001-31.998V76.216c0-17.651 14.356-32.01 32-32.01h189.898c17.651 0 32.01 14.36 32.01 32.01v101.482c0 3.177-.459 6.27-1.36 9.245h-46.152c-18.771 0-35.486 8.929-46.153 22.753zm316.284 158.199c0 22.354-18.193 40.541-40.555 40.541H317.05a8.869 8.869 0 0 0-8.826 7.994l-4.013 40.459-44.834-45.788a8.865 8.865 0 0 0-6.336-2.664h-28.906c-22.354 0-40.541-18.187-40.541-40.541V245.22c0-22.354 18.187-40.54 40.541-40.54H453.71v-.001c22.362 0 40.555 18.186 40.555 40.54v122.676z" fill="rgba(0, 0, 0, .1)" stroke="none"/>
  <path d="M183.31 93.756c-1.206-19.413-16.755-34.962-36.168-36.167-10.807-.668-21.086 3.028-28.949 10.418-7.754 7.287-12.199 17.566-12.199 28.201-.001 4.9 3.968 8.87 8.868 8.87s8.869-3.971 8.869-8.869c0-5.846 2.347-11.27 6.609-15.277 4.258-4.002 9.836-6.005 15.702-5.641 10.329.641 18.922 9.234 19.564 19.562.484 7.802-3.346 15.177-9.997 19.249-12.391 7.585-19.789 20.693-19.789 35.065 0 4.898 3.97 8.869 8.869 8.869s8.869-3.971 8.869-8.869c0-8.149 4.229-15.601 11.312-19.937 12.265-7.507 19.332-21.101 18.44-35.474z" fill="rgba(0, 0, 0, .1)" stroke="none"/>
  <path d="M338.925 240.4a8.869 8.869 0 0 0-8.869 8.869v75.063a8.87 8.87 0 0 0 17.738 0v-75.063a8.87 8.87 0 0 0-8.869-8.869z" fill="rgba(0, 0, 0, .1)" stroke="none"/>
  <circle cx="338.916" cy="364.068" r="8.869" fill="rgba(0, 0, 0, .1)" stroke="none"/>
  <circle cx="144.679" cy="182.046" r="8.869" fill="rgba(0, 0, 0, .1)" stroke="none"/>
</svg>
</g></svg></g></g>
<!-- /image 46719 -->

<!-- image 57142 -->
<g id="transformed-57142" data-image="57142" transform="translate(-7, -38) rotate(0, 42, 42)"><g><svg version="1.1" width="84px" height="84px" viewBox="0 0 84 84"><g id="original-57142"><svg xmlns="http://www.w3.org/2000/svg" viewBox="0 0 612 612" xmlns:xlink="http://www.w3.org/1999/xlink" version="1.1" preserveAspectRatio="xMidYMid meet">
  <path d="M230.724 181.208a1489.01 1489.01 0 0 1-5.119 5.508c2.17-2.337 5.119-5.508 5.119-5.508z" fill="rgba(0, 0, 0, .1)" stroke="none"/>
  <path d="M336.962 200.875c7.956 9.792 11.906 21.337 11.906 34.634 0 9.514-2.727 18.666-8.151 27.512-2.977 5.007-6.898 9.848-11.795 14.465l-16.301 16.107c-15.634 15.356-25.732 28.958-30.35 40.865-4.618 11.878-6.927 27.54-6.927 46.957h36.275c0-17.108 1.947-30.044 5.814-38.807 3.866-8.763 12.323-19.444 25.37-32.102 17.942-17.387 29.849-30.572 35.746-39.53s8.874-20.641 8.874-35.051c0-23.756-8.039-43.285-24.146-58.585-16.106-15.3-37.526-22.922-64.288-22.922-28.931 0-51.686 8.929-68.266 26.789s-24.87 41.449-24.87 70.797h36.275c.667-17.665 3.478-31.184 8.346-40.559 8.679-16.83 24.369-25.259 47.068-25.259 18.333.001 31.491 4.897 39.42 14.689z" fill="rgba(0, 0, 0, .1)" stroke="none"/>
  <path d="M612 306C612 137.004 474.995 0 306 0 137.004 0 0 137.004 0 306c0 168.995 137.004 306 306 306 168.995 0 306-137.005 306-306zm-584.182 0C27.818 152.36 152.36 27.818 306 27.818S584.182 152.36 584.182 306 459.64 584.182 306 584.182 27.818 459.64 27.818 306z" fill="rgba(0, 0, 0, .1)" stroke="none"/>
  <path d="M274.51 415.214h40.559v42.367H274.51z" fill="rgba(0, 0, 0, .1)" stroke="none"/>
</svg>
</g></svg></g></g>
<!-- /image 57142 -->

<!-- image 00584 -->
<g id="transformed-00584" data-image="00584" transform="translate(-6.4630924234556275, 95.53690757654437) rotate(336, 30.463092423455628, 30.463092423455635)"><g><svg version="1.1" width="60.926184846911255px" height="60.92618484691127px" viewBox="0 0 60.926184846911255 60.92618484691127"><g id="original-00584"><svg xmlns="http://www.w3.org/2000/svg" viewBox="0 0 510 510" xmlns:xlink="http://www.w3.org/1999/xlink" version="1.1" preserveAspectRatio="xMidYMid meet">
  <path d="M255 0C114.75 0 0 114.75 0 255s114.75 255 255 255 255-114.75 255-255S395.25 0 255 0zm25.5 433.5h-51v-51h51v51zm53.55-196.35L311.1 260.1c-20.399 17.851-30.6 33.15-30.6 71.4h-51v-12.75c0-28.05 10.2-53.55 30.6-71.4l30.6-33.15c10.2-7.65 15.3-20.4 15.3-35.7 0-28.05-22.95-51-51-51s-51 22.95-51 51h-51c0-56.1 45.9-102 102-102s102 45.9 102 102c0 22.95-10.2 43.35-22.95 58.65z" fill="rgba(0, 0, 0, .1)" stroke="none"/>
</svg>
</g></svg></g></g>
<!-- /image 00584 -->

<!-- image 79911 -->
<g id="transformed-79911" data-image="79911" transform="translate(104.59936306378484, 103.59936306378484) rotate(9, 31.400636936215157, 31.400636936215164)"><g><svg version="1.1" width="62.801273872430315px" height="62.80127387243033px" viewBox="0 0 62.801273872430315 62.80127387243033"><g id="original-79911"><svg xmlns="http://www.w3.org/2000/svg" viewBox="0 0 511.999 511.999" xmlns:xlink="http://www.w3.org/1999/xlink" version="1.1" preserveAspectRatio="xMidYMid meet">
  <path d="M256 0C134.684 0 36 96.243 36 215.851c0 68.63 33.021 132.639 88.879 173.334V492a20 20 0 0 0 33.539 14.72l82.144-75.555c5.17.355 10.335.535 15.438.535 121.316 0 220-96.243 220-215.851C476 96.13 377.21 0 256 0zm0 391.701c-6.687 0-13.516-.376-20.298-1.118a19.977 19.977 0 0 0-15.715 5.161l-55.108 50.687v-67.726a20.002 20.002 0 0 0-9.034-16.726C105.848 329.2 76 274.573 76 215.851 76 118.886 156.747 40 256 40s180 78.886 180 175.851c0 96.963-80.748 175.85-180 175.85z" fill="rgba(0, 0, 0, .1)" stroke="none"/>
  <path d="M266 98.877h-70c-11.046 0-20 8.954-20 20s8.954 20 20 20h70c16.542 0 30 13.458 30 30s-13.458 30-30 30h-20c-11.046 0-20 8.954-20 20v28.793c0 11.046 8.954 20 20 20s20-8.954 20-20v-8.793c38.598 0 70-31.401 70-70 0-38.598-31.402-70-70-70z" fill="rgba(0, 0, 0, .1)" stroke="none"/>
  <circle cx="246" cy="319.16" r="27" fill="rgba(0, 0, 0, .1)" stroke="none"/>
</svg>
</g></svg></g></g>
<!-- /image 79911 -->
</defs><rect x="0" y="0" width="250" height="250" fill="rgba(196, 63, 63, 0)"></rect><use xlink:href="#transformed-21419" transform="translate(-250, -250)"></use><use xlink:href="#transformed-21419" transform="translate(0, -250)"></use><use xlink:href="#transformed-21419" transform="translate(250, -250)"></use><use xlink:href="#transformed-21419" transform="translate(-250, 0)"></use><use xlink:href="#transformed-21419" transform="translate(0, 0)"></use><use xlink:href="#transformed-21419" transform="translate(250, 0)"></use><use xlink:href="#transformed-21419" transform="translate(-250, 250)"></use><use xlink:href="#transformed-21419" transform="translate(0, 250)"></use><use xlink:href="#transformed-21419" transform="translate(250, 250)"></use><use xlink:href="#transformed-46719" transform="translate(-250, -250)"></use><use xlink:href="#transformed-46719" transform="translate(0, -250)"></use><use xlink:href="#transformed-46719" transform="translate(250, -250)"></use><use xlink:href="#transformed-46719" transform="translate(-250, 0)"></use><use xlink:href="#transformed-46719" transform="translate(0, 0)"></use><use xlink:href="#transformed-46719" transform="translate(250, 0)"></use><use xlink:href="#transformed-46719" transform="translate(-250, 250)"></use><use xlink:href="#transformed-46719" transform="translate(0, 250)"></use><use xlink:href="#transformed-46719" transform="translate(250, 250)"></use><use xlink:href="#transformed-57142" transform="translate(-250, -250)"></use><use xlink:href="#transformed-57142" transform="translate(0, -250)"></use><use xlink:href="#transformed-57142" transform="translate(250, -250)"></use><use xlink:href="#transformed-57142" transform="translate(-250, 0)"></use><use xlink:href="#transformed-57142" transform="translate(0, 0)"></use><use xlink:href="#transformed-57142" transform="translate(250, 0)"></use><use xlink:href="#transformed-57142" transform="translate(-250, 250)"></use><use xlink:href="#transformed-57142" transform="translate(0, 250)"></use><use xlink:href="#transformed-57142" transform="translate(250, 250)"></use><use xlink:href="#transformed-00584" transform="translate(-250, -250)"></use><use xlink:href="#transformed-00584" transform="translate(0, -250)"></use><use xlink:href="#transformed-00584" transform="translate(250, -250)"></use><use xlink:href="#transformed-00584" transform="translate(-250, 0)"></use><use xlink:href="#transformed-00584" transform="translate(0, 0)"></use><use xlink:href="#transformed-00584" transform="translate(250, 0)"></use><use xlink:href="#transformed-00584" transform="translate(-250, 250)"></use><use xlink:href="#transformed-00584" transform="translate(0, 250)"></use><use xlink:href="#transformed-00584" transform="translate(250, 250)"></use><use xlink:href="#transformed-79911" transform="translate(-250, -250)"></use><use xlink:href="#transformed-79911" transform="translate(0, -250)"></use><use xlink:href="#transformed-79911" transform="translate(250, -250)"></use><use xlink:href="#transformed-79911" transform="translate(-250, 0)"></use><use xlink:href="#transformed-79911" transform="translate(0, 0)"></use><use xlink:href="#transformed-79911" transform="translate(250, 0)"></use><use xlink:href="#transformed-79911" transform="translate(-250, 250)"></use><use xlink:href="#transformed-79911" transform="translate(0, 250)"></use><use xlink:href="#transformed-79911" transform="translate(250, 250)"></use></svg>
